/* XPM */
static char *result[] = {
/* columns rows colors chars-per-pixel */
"64 64 16 1 ",
"  c #101010",
". c #240312",
"X c #28221E",
"o c #490A1E",
"O c #5B3843",
"+ c #595047",
"@ c #6C444C",
"# c #655452",
"$ c #7D595D",
"% c #862B2A",
"& c #A25342",
"* c #928182",
"= c #928684",
"- c #AA9393",
"; c #AEA8A8",
": c None",
/* pixels */
"::::::::::::::::::::::::::::::::::::::::::::::::::::::::::::::::",
"::::::::::::::::::::::::::::::::::::::::::::::::::::::::::::::::",
"::::::::::::::::::::::::::::::::::::::::::::::::::::::::::::::::",
"::::::::::::::::::::::::::::::::::::::::::::::::::::::::::::::::",
"::::::::::::::::::::::::::::::::::::::::::::::::::::::::::::::::",
"::::::::::::::::::::::::::::::::::::::::::::::::::::::::::::::::",
"::::::::::::::::::::::::::::::::::::::::::::::::::::::::::::::::",
"::::::::::::::::::::::::::::::::::::::::::::::::::::::::::::::::",
"::::::::::::::::::::::::::::::::::::::::::::::::::::::::::::::::",
"::::::::::::::::::::::::::::::::::::::::::::::::::::::::::::::::",
"::::::::::::::::::::::::::::::::::::::::::::::::::::::::::::::::",
"::::::::::::::::::::::::::::::::::::::::::::::::::::::::::::::::",
"::::::::::::::::::::::::::::::::::::::::::::::::::::::::::::::::",
"::::::::::::::::::::::::::::::::::::::::::::::::::::::::::::::::",
"::::::::::::::::::::::::::::::::::::::::::::::::::::::::::::::::",
"::::::::::::::::::::::::::::::::::::::::::::::::::::::::::::::::",
"::::::::::::::::::::::::::::::::::::::::::::::::::::::::::::::::",
":::::::::::::::::::::::::::&&&&%%o::::::::::::::::::::::::::::::",
"::::::::::::::::::::::::::&&&&%%ooo:::::::::::::::::::::::::::::",
"::::::::::::::::::::::::::&&&%%%%oo.::::::::::::::::::::::::::::",
":::::::::::::::::::::::::&&%%%%%%%o.::::::::::::::::::::::::::::",
":::::::::::::::::::::::::&oXX$$+%%%..:::::::::::::::::::::::::::",
":::::::::::::::::::::::::&oX$$$+XXoo.:::::::::::::::::::::::::::",
":::::::::::::::::::::::::&oX---+$XXo..::::::::::::::::::::::::::",
":::::::::::::::::::::::::%o+----$+X...::::::::::::::::::::::::::",
"::::::::::::::::::::::::::o+----o+X...::::::::::::::::::::::::::",
"::::::::::::::::::::::::::%+X$$oo+X..:::::::::::::::::::::::::::",
":::::::::::::::::::::::::::+Xooo++X:::::::::::::::::::::::::::::",
"::::::::::::::::::::::::::++X%%%o+X.::::::::::::::::::::::::::::",
"::::::::::::::::::::::::::+&&%%oo+...:::::::::::::::::::::::::::",
":::::::::::::::::::::::::+&&&%%oooo...::::::::::::::::::::::::::",
":::::::::::::::::::::::::&&&%%oooooo..::::::::::::::::::::::::::",
":::::::::::::::::::::::::;&&%%%%ooo....:::::::::::::::::::::::::",
"::::::::::::::::::::::::::;;%%%%%oo..##:::::::::::::::::::::::::",
"::::::::::::::::::::::::::--%%%%%o..##@:::::::::::::::::::::::::",
"::::::::::::::::::::::::::-$*%%%o**#$@@:::::::::::::::::::::::::",
"::::::::::::::::::::::::::-$ ****  #:$@:::::::::::::::::::::::::",
":::::::::::::::::::::::::-$          $$@::::::::::::::::::::::::",
":::::::::::::::::::::::::$$          :$@::::::::::::::::::::::::",
":::::::::::::::::::::::::$            ::::::::::::::::::::::::::",
":::::::::::::::::::::::::              :::::::::::::::::::::::::",
"::::::::::::::::::::::::           O   :::::::::::::::::::::::::",
"::::::::::::::::::::::::::;$$     OOO:::::::::::::::::::::::::::",
":::::::::::::::::::::::::::;==    :=#:::::::::::::::::::::::::::",
":::::::::::::::::::::::::::;=::  ::==#::::::::::::::::::::::::::",
":::::::::::::::::::::::::::;=::: :::=#::::::::::::::::::::::::::",
"::::::::::::::::::::::::::: =::::::::# :::::::::::::::::::::::::",
"::::::::::::::::::::::::::   :::::::   :::::::::::::::::::::::::",
"::::::::::::::::::::::::::::::::::::::::::::::::::::::::::::::::",
"::::::::::::::::::::::::::::::::::::::::::::::::::::::::::::::::",
"::::::::::::::::::::::::::::::::::::::::::::::::::::::::::::::::",
"::::::::::::::::::::::::::::::::::::::::::::::::::::::::::::::::",
"::::::::::::::::::::::::::::::::::::::::::::::::::::::::::::::::",
"::::::::::::::::::::::::::::::::::::::::::::::::::::::::::::::::",
"::::::::::::::::::::::::::::::::::::::::::::::::::::::::::::::::",
"::::::::::::::::::::::::::::::::::::::::::::::::::::::::::::::::",
"::::::::::::::::::::::::::::::::::::::::::::::::::::::::::::::::",
"::::::::::::::::::::::::::::::::::::::::::::::::::::::::::::::::",
"::::::::::::::::::::::::::::::::::::::::::::::::::::::::::::::::",
"::::::::::::::::::::::::::::::::::::::::::::::::::::::::::::::::",
"::::::::::::::::::::::::::::::::::::::::::::::::::::::::::::::::",
"::::::::::::::::::::::::::::::::::::::::::::::::::::::::::::::::",
"::::::::::::::::::::::::::::::::::::::::::::::::::::::::::::::::",
"::::::::::::::::::::::::::::::::::::::::::::::::::::::::::::::::"
};
