/* XPM */
static char *result[] = {
/* columns rows colors chars-per-pixel */
"64 64 14 1 ",
"  c #101010",
". c #240312",
"X c #490A1E",
"o c #5B3843",
"O c #595047",
"+ c #6C444C",
"@ c #655452",
"# c #7D595D",
"$ c #862B2A",
"% c #A25342",
"& c #928182",
"* c #AA9393",
"= c #AEA8A8",
"- c None",
/* pixels */
"----------------------------------------------------------------",
"----------------------------------------------------------------",
"----------------------------------------------------------------",
"----------------------------------------------------------------",
"----------------------------------------------------------------",
"----------------------------------------------------------------",
"----------------------------------------------------------------",
"----------------------------------------------------------------",
"----------------------------------------------------------------",
"----------------------------------------------------------------",
"----------------------------------------------------------------",
"----------------------------------------------------------------",
"----------------------------------------------------------------",
"----------------------------------------------------------------",
"----------------------------------------------------------------",
"----------------------------------------------------------------",
"----------------------------------------------------------------",
"----------------------------------------------------------------",
"------------------------------XXX%%%%---------------------------",
"-----------------------------XXX$$%%%%--------------------------",
"----------------------------.XX$$$$%%%--------------------------",
"----------------------------.XX$$$$$$%%-------------------------",
"---------------------------..X$$$$$$$%%%------------------------",
"--------------------------..XX$$$$$$$%%%------------------------",
"--------------------------....X$$$$$$$%%------------------------",
"--------------------------....XX$$$$$$%%------------------------",
"--------------------------......X$$$$$%-------------------------",
"---------------------------......X$$$$%-------------------------",
"----------------------------....XXX$$$%-------------------------",
"-----------------------------....XX$$$O-------------------------",
"----------------------------....XXXX%OOO***---------------------",
"---------------------------....XXXX%%%%=***---------------------",
"--------------------------...XXXXX%%%%=**#----------------------",
"-------------------------.....XXX$%%==###-----------------------",
"------------------------@@....XX$X&== --------------------------",
"-----------------------ooo@@@@@&&&   ---------------------------",
"----------------------o++++-         ---------------------------",
"----------------------++----          --------------------------",
"----------------------------          --------------------------",
"---------------------------        ++  -------------------------",
"--------------------------         @&  -------------------------",
"-------------------------         -@&& -------------------------",
"-------------------------        --@&&--------------------------",
"------------------------   ###   -- &---------------------------",
"---------------------------&&#  ---  ---------------------------",
"--------------------------&&&- -----  --------------------------",
"------------------------  &&-- ---------------------------------",
"------------------------  &-------------------------------------",
"------------------------ ---------------------------------------",
"----------------------------------------------------------------",
"----------------------------------------------------------------",
"----------------------------------------------------------------",
"----------------------------------------------------------------",
"----------------------------------------------------------------",
"----------------------------------------------------------------",
"----------------------------------------------------------------",
"----------------------------------------------------------------",
"----------------------------------------------------------------",
"----------------------------------------------------------------",
"----------------------------------------------------------------",
"----------------------------------------------------------------",
"----------------------------------------------------------------",
"----------------------------------------------------------------",
"----------------------------------------------------------------"
};
