/* XPM */
static char *result[] = {
/* columns rows colors chars-per-pixel */
"64 64 157 2 ",
"   c #442521",
".  c #482723",
"X  c #4D2926",
"o  c #502B27",
"O  c #552E2B",
"+  c #582F2C",
"@  c #5C322D",
"#  c #5E3531",
"$  c #5C393A",
"%  c #60342F",
"&  c #653731",
"*  c #633934",
"=  c #6D3B36",
"-  c #673D3C",
";  c #6D3E3A",
":  c #703D37",
">  c #753F3A",
",  c #66403C",
"<  c #6C423F",
"1  c #71413C",
"2  c #7B433C",
"3  c #3E734E",
"4  c #367152",
"5  c #3C7551",
"6  c #51424C",
"7  c #5E4348",
"8  c #524753",
"9  c #564F5D",
"0  c #57505E",
"q  c #58515F",
"w  c #634143",
"e  c #6D4343",
"r  c #694748",
"t  c #6C4C4D",
"y  c #724643",
"u  c #754945",
"i  c #754E4A",
"p  c #784E4A",
"a  c #76514D",
"s  c #79514D",
"d  c #6D4C50",
"f  c #63535E",
"g  c #6F5658",
"h  c #745255",
"j  c #7C5551",
"k  c #755955",
"l  c #7D5854",
"z  c #7A5758",
"x  c #44794F",
"c  c #4A7D4E",
"v  c #434F65",
"b  c #4A4F61",
"n  c #455166",
"m  c #4C5265",
"M  c #455268",
"N  c #48556C",
"B  c #4C586E",
"V  c #5C5361",
"C  c #535A6C",
"Z  c #4E5B72",
"A  c #635664",
"S  c #645866",
"D  c #466164",
"F  c #4F676E",
"G  c #556177",
"H  c #5E6274",
"J  c #536D72",
"K  c #556278",
"L  c #5B667B",
"P  c #5C687D",
"I  c #7F6663",
"U  c #796A70",
"Y  c #834640",
"T  c #8E4D46",
"R  c #945149",
"E  c #9A544C",
"W  c #8B5351",
"Q  c #835D5B",
"!  c #945956",
"~  c #8F5E60",
"^  c #836462",
"/  c #826966",
"(  c #876C69",
")  c #896D6A",
"_  c #8B726F",
"`  c #8D7472",
"'  c #8E7977",
"]  c #917A79",
"[  c #50814D",
"{  c #4C8D5E",
"}  c #5D9B5E",
"|  c #609D5E",
" . c #75AC56",
".. c #79AE55",
"X. c #72AA58",
"o. c #7CB255",
"O. c #4D8566",
"+. c #478F63",
"@. c #498F63",
"#. c #52836C",
"$. c #548E6B",
"%. c #4D9262",
"&. c #539463",
"*. c #579860",
"=. c #589860",
"-. c #55926C",
";. c #5E986A",
":. c #5D9376",
">. c #7AAC61",
",. c #69718B",
"<. c #6D7792",
"1. c #6B7895",
"2. c #6E7E9E",
"3. c #707792",
"4. c #747A95",
"5. c #707D9B",
"6. c #738D96",
"7. c #71809E",
"8. c #7A949D",
"9. c #7383A2",
"0. c #7F8CA6",
"q. c #7D8CA9",
"w. c #8A8787",
"e. c #8E8C8C",
"r. c #958583",
"t. c #958886",
"y. c #988887",
"u. c #968A89",
"i. c #998C8B",
"p. c #9D908F",
"a. c #848890",
"s. c #8B8E95",
"d. c #8F9197",
"f. c #929293",
"g. c #9F9897",
"h. c gray61",
"j. c #A09997",
"k. c #A39C9B",
"l. c #838DA5",
"z. c #8194A6",
"x. c #8592AB",
"c. c #8895AF",
"v. c #9296A9",
"b. c #999BAD",
"n. c #8A97B1",
"m. c #8F9CB5",
"M. c #939DB4",
"N. c #97A0B6",
"B. c #9AA2B6",
"V. c #97A2B9",
"C. c #99A4BA",
"Z. c #9FA9BF",
"A. c #A7A4A4",
"S. c #A9A6A6",
"D. c #ACACAC",
"F. c #A0A9BE",
"G. c #A3ADC1",
/* pixels */
"3 %.%.%.%.%.%.%.%.%.%.%.%.%.%.%.%.%.%.%.%.%.+.%.%.%.%.%.%.%.%.%.%.o.o.&.%.%.%.%.%.%.%.%.%.%.%.%.%.%.%.%.%.%.%.%.%.%.%.%.%.%.%.%.",
"%.%.%.%.%.%.%.%.%.%.%.%.%.%.%.%.%.%.%.%.%.| X.+.%.%.%.%.%.%.%.%.%...o.&.+. .*.%.%.%.%.%.%.%.%.%.%.%.%.%.%.%.%.+.}  .+.%.%.%.%.%.",
"%.%.%.%.%.%.%.%.%.%.%.%.%.%.%.%.%.%.%.%.%.} ..+.+.%.%.%.%.%.%.%.%.%.o.5 X.o.*.%.%.%.%.&.%.%.%.%.&.%.%.%.%.%.} X.}  .+.%.%.%.%.%.",
"%.%.%.%.%.%.%.%.%.%.%.%.%.%.%.%.%.%.%.%.%.} X.} X.%.%.%.%.%.%.%.%.%.x ..o.[ +.%.%.%.%.%.%.%.%.%.%.%.%.%.%.+.}  .%...+.%.%.%.%.%.",
"%.%.%.%.%.%.%.%.%.%.&.%.%.%.%.%.%.%.%.%.%.} X.*...+.%.%.%.%.%.%.%.%.{ c c { %.%.%.%.%.%.%.%.%.%.%.%.%.%.%.%.}  .+.} %.%.%.%.%.%.",
"%.%.%.%.+.%.%.%.%.%.%.%.%.%.%.%.%.%.%.%.%.&.&.} >.0.c.c.c.c.c.c.c.c.c.x.%.%.%.%.%.%.%.%.%.%.%.%.%.%.%.%.%.%.}  .+.%.%.%.%.%.%.%.",
"%.%.%.%.X.%.%.%.%.%.%.%.%.%.%.%.%.%.%.%.%.%.@.%.;.z.n.c.c.c.c.c.c.c.c.c.$.%.%.%.%.%.%.%.%.%.%.%.%.%.%.%.%.%.&.} %.%.%.%.%.%.%.%.",
"%.%.@.@...} %.%.%.%.%.%.%.%.%.%.%.%.%.%.%.%.%.%.-.8.n.n.c.c.c.c.c.c.c.c.-.%.%.%.%.%.%.%.%.%.%.%.%.%.%.%.%.%.%.%.%.%.%.%.%.%.%.%.",
"%.%.X.%...&.%.%.%.%.%.%.%.%.:.:.:.:.:.:.:.:.:.O.#.q.c.c.c.c.c.c.c.c.c.x.#.O.:.:.:.:.:.:.:.:.:.&.%.%.%.%.%.%.%.%.%.%.%.%.%.%.%.%.",
"%.%.o.%.o.*.%.%.%.%.%.%.%.-.0.c.c.c.c.c.c.n.x.K B q.c.n.c.c.c.n.c.c.c.x.B B l.c.c.c.c.c.c.c.x.-.%.%.%.%.%.%.%.@.%.%.%.%.%.%.%.%.",
"%.%.o.&.} %.%.%.%.%.%.%.%.-.z.n.c.c.c.c.c.c.x.K Z n.V.V.V.V.V.V.V.V.N.M.B B q.c.c.c.c.c.c.c.x.-.%.%.%.%.%.&.@.&.%.%.%.%.%.%.%.%.",
"%.%.| -.%.&.$.%.&.&.&.$.%.-.8.c.c.c.c.c.c.c.x.K Z N.G.G.Z.G.G.G.G.G.G.C.B B q.c.c.c.c.c.c.c.x.$.%.%.%.$.$.&.&.@.%.&.%.@.&.%.%.%.",
"%.%.+.8.8.8.8.8.8.8.8.6.J F q.n.c.c.c.c.c.n.q.K B 9.q.q.q.q.q.q.q.q.q.q.N N q.c.c.c.c.c.c.c.x.F F 6.8.8.8.8.8.8.8.6.J D %.%.%.%.",
"%.%.%.c.c.c.c.c.c.c.n.x.K Z l.n.n.n.n.n.n.n.c.K N 1.7.7.2.2.2.2.7.7.7.1.N N x.n.n.n.n.n.n.n.x.B Z q.c.c.c.c.c.c.n.x.K v %.%.%.%.",
"%.%.%.c.c.c.c.c.c.c.c.x.G Z N.G.G.G.G.G.Z.G.V.K M 1.2.7.2.9.9.2.7.2.7.2.N Z V.G.G.G.G.G.G.G.C.Z B 0.c.c.c.c.c.c.c.x.K v %.%.%.%.",
"%.%.%.c.c.c.c.c.c.c.c.x.G Z M.Z.Z.Z.Z.Z.Z.Z.m.,.N 2.7.2.2.2.2.2.2.7.2.2.N Z m.Z.Z.Z.Z.Z.Z.Z.C.Z B q.c.c.c.c.c.c.c.x.K n %.%.%.%.",
"%.%.%.c.c.c.c.c.c.c.c.x.K N 2.9.9.9.9.9.9.9.2.Z N 2.2.2.2.7.2.2.2.2.2.2.N B 2.9.9.9.9.9.9.9.9.N B 0.c.c.n.n.n.c.c.x.K v %.%.%.%.",
"%.%.%.m.m.m.m.m.m.m.m.n.K N 1.2.2.2.2.7.9.2.2.Z N 1.2.2.9.2.2.9.2.2.2.2.N N 1.2.2.9.2.2.2.2.2.N B x.n.M.m.m.m.m.m.n.K v %.%.%.%.",
"%.%.%.G.G.G.G.G.G.G.G.C.P N 1.2.7.2.7.2.2.2.2.Z N 1.9.2.2.9.2.2.2.2.2.2.N N 1.2.2.2.2.7.2.2.1.N Z B.G.G.G.G.G.G.G.Z.P v %.%.%.%.",
"%.%.%.n.n.n.n.n.n.n.n.x.K N 2.2.2.7.2.7.2.2.2.b 6 9 0 S V S S S S S V q 6 8 1.2.9.2.7.2.7.2.2.N B z.n.n.n.n.n.n.n.x.K v %.%.%.%.",
"%.%.%.2.7.7.2.7.2.7.2.2.Z N 1.2.2.2.2.2.2.2.2.7 O     + @ O + @ + + .   O $ <.2.2.9.2.2.2.7.2.M N 1.2.2.2.2.2.2.7.1.Z v %.%.} %.",
"%.%.%.9.9.7.7.2.7.2.7.2.0 6 V A A A V V S S A $ O     + @ @ O + + + .   O & f A V V V V A A A 6 8 1.9.2.2.9.2.9.7.2.Z n %.=.o.%.",
"%.%.+.9.2.7.2.7.2.7.7.2.7 @ O @ + O   X @ + + + +     @ + @ + + + + .   + + + + + X   X @ + + @ $ <.2.2.2.9.2.2.2.2.Z n &.o.o.%.",
"%.%.+.2.7.2.7.2.7.2.7.1.7 O @ @ + O   + * = * * & + @ & * & = = * - + O * * * - * O   X + + @ + $ <.2.2.2.2.2.2.2.2.Z n { o.X.%.",
"%.%.%.1.2.1.2.2.1.2.1.1.7 @ @ @ + O . + : = = = = + & = = : = = = = % + = = = = = +   o @ @ + + $ ,.1.1.1.1.1.2.1.1.Z v c X.+.%.",
"%.%.%.N N N M N M N M v 7 = & = = & + & = = = = = # + = = = = = = = & @ = = : = : & @ % & = = = - M B N N N N N N M M v X.4 %.%.",
"%.%.%.Z Z Z Z Z Z Z Z Z t y 1 < u e @ & = = : = = @ % = = = = = = = & @ = = = = : % % & : = = = w C Z Z Z Z Z Z Z Z M v 5 %.%.%.",
"%.%.%.Z.Z.Z.Z.Z.Z.Z.Z.C.d.w.w.e.A.u.* & = = = = = % @ = = : = = = = # + = = = = : % @ & = = : = u b.Z.Z.Z.Z.Z.Z.Z.V.P v %.%.%.%.",
"%.%.%.C.C.C.V.V.C.C.V.V.d.s.f.g.D.i.* & = = = = = @ @ = = = = = : * & + = : = = = & @ & : = = = u v.C.C.V.C.V.V.V.M.K v %.%.%.3 ",
"%.%.+.7.7.7.2.2.7.7.2.2.a.s.D.D.D.i.* * = = = : = @ % = = = : = : = # # * : = = = & @ & = = = = e <.2.2.2.2.9.2.2.2.Z v %.%.%.3 ",
"%.%.%.7.2.7.2.2.7.7.2.2.U I _ ` ` ^ # & = = ; ^ ( * @ = = = = = = = # # ) ) > = = & @ & = = = = e 3.2.2.9.2.2.2.7.2.Z v %.%.%.%.",
"%.%.%.7.7.2.9.2.7.2.7.2.t = = = = = @ & = = y i.k., @ = : = = = = = & * k.k.u = : & @ & = = = = e 1.9.2.2.7.2.2.2.2.Z n %.%.%.%.",
"5 %.&.2.2.2.2.2.2.2.2.1.d = = = = = % & = = 1 p Q t.r.1 = = = = = : ' u.z j 1 = = % @ & 1 = , 1 , 3.7.7.9.2.2.2.9.2.Z v +.+.+.-.",
"3 %.$.2.2.2.2.2.2.2.2.5.d = = = = & % & = = = = u g.g.1 = = = = = > u.A.u = = = 1 & @ % & 2 1 1 < 3.7.7.2.7.2.2.2.2.Z v +.+.%.%.",
"@.%.@.2.2.2.2.2.2.2.2.2.d = = : : & % % = = = = , , , = : = = = = = - - = = = = = & % & 2 r.j.2 e 1.7.7.7.7.7.7.2.2.Z v %.%.%.%.",
"%.%.@.2.1.2.1.1.2.2.1.1.d = = = = = % & = = = = = % @ = < 2 1 = = = & @ = : = = = % @ & 1 i.A.2 e ,.1.1.1.1.1.1.1.1.Z v %.%.%.%.",
"%.%.%.N B N N v N M M M w = : = = = % % = = = = = % @ = j j.) = = = & @ = = = = = % % & 1 p.S.u , m N N N N N N N N n v %.%.%.%.",
"%.%.%.L L L L ,.,.K ,.L r = = = = & % % = = = = & % % = s y.` Q u = % @ = = = = 1 % @ & 1 p.S.u , H P P P P P P P P N v %.%.%.%.",
"%.%.%.F.F.F.F.F.F.F.M.B.z = : = : = % % = = = = = @ @ = = 1 _ S._ = % @ = = = = = % # & 1 p.S.u u b.F.F.Z.F.F.F.Z.V.P n %.%.%.%.",
"%.%.%.n.n.n.n.n.n.n.n.x.h = = = = & % & = = = = = % @ = = = Q _ Q & % @ = = = = 1 & # & 1 p.S.u y l.n.n.n.n.n.n.n.x.K M %.%.%.%.",
"%.%.@.2.2.7.2.7.2.2.2.5.d : = = = & % & = = = = = @ @ = = = : = = = % @ & : = = = & @ & 1 p.S.u w 1.2.2.2.2.2.2.7.2.Z v %.%.%.%.",
"%.%.%.7.7.2.9.2.2.2.2.2.d : = = = = + & = : = = < / / 1 = = = = = = % % ( _ 1 = = & @ & 1 p.S.u r 2.9.2.2.2.9.2.7.1.Z v %.%.%.%.",
"%.%.%.2.2.9.2.2.2.2.2.2.d = = = = = + & = = : : p j.j.1 = = = = = = % * j.k.p < : & @ & 1 y.k.2 r <.9.2.9.2.9.2.7.2.Z v %.%.%.%.",
"%.%.%.2.2.2.2.2.2.2.2.1.d = = : : & % & = = > ] t.k i 1 = : = = = = % @ s Q y.] 1 & % & 1 s l 1 e 3.2.2.2.2.2.2.2.2.Z v %.%.%.%.",
"%.%.+.9.2.2.9.2.2.2.2.2.d = = = = * @ & = = y i.j., @ = = = = = = = % @ = u g.i.1 & @ & 1 = = = e <.2.2.2.2.2.2.2.2.Z v %.%.%.%.",
"%.-.+.7.2.7.2.2.2.2.2.2.d = = = = = @ & = = = y 1 % @ = = = : = = = % @ & 1 u 2 = & @ & = = = = e 3.2.2.2.2.2.2.2.2.Z v %.%.%.%.",
"%.%.+.1.1.2.2.1.1.1.1.<.d = = = = = % & = : = = = @ @ = = = = = = = % @ = = = = = & @ & = = = = e ,.1.1.2.1.1.2.1.1.Z v %.%.%.%.",
"%.%.+.M v M M M N v N b w = = = = = + & = = = = = @ % = = : = : = = % @ = = = = = & @ & = = = = - b M N M M v M M v v v %.%.%.%.",
"%.%.%.P ,.,.Z ,.K K P P g a a a l i @ & = = = = = % @ = = = = = = = % @ = = : = : & @ & = : = = e H ,.K ,.K ,.L ,.K N v %.%.%.%.",
"%.%.%.Z.Z.Z.C.Z.Z.Z.Z.Z.d.w.w.e.A.t.$ & = = = = = @ @ = = : = = = = % @ = = = = = & @ & = = = = u b.Z.C.Z.Z.M.Z.Z.M.P v %.%.%.%.",
"%.%.%.n.q.m.m.q.n.q.m.c.s.e.h.h.D.p.* & = = = = = @ % = = = = : = = % @ = = = = : % @ & = = = = y l.n.n.m.n.n.m.c.x.K v %.%.%.%.",
"%.%.%.7.2.9.9.7.7.7.9.7.6.f.S.D.D.p.* & = = : = = % @ = = = = = = = % @ = = = = : & @ & = = : = e <.2.2.2.2.2.2.2.2.Z v %.%.%.%.",
"%.%.%.7.7.7.2.2.2.2.5.5.k a l l j p @ & = = = = = @ @ 1 = = = = = = % % = = = = = & % % = = = = e 3.2.2.2.2.2.9.2.2.Z v %.%.%.%.",
"%.%.+.7.7.7.2.2.9.2.5.5.h = : : : = @ & : : : 1 = @ @ = : : : : : = % % = = : : : & % & : 1 : : y 3.2.2.2.2.2.2.2.2.Z v %.%.%.%.",
"%.%.%.7.2.7.2.9.2.2.9.5.Q T T T T Y % 1 T T T T T % % T T T T T T T & % T T T T T 1 @ 2 T T T T W 4.2.2.9.2.2.2.2.2.Z v %.%.%.%.",
"%.%.%.7.7.2.7.2.2.2.5.5.~ E E E E T % 2 E E E R R % & E E E E E E R = % R E E E E 2 @ 2 E E E E ! 4.2.2.2.2.9.2.2.2.Z v %.%.%.%.",
"%.%.%.%.%.%.%.+. .| %.%.%.%.%.%.%.%.%.%.%.%.%.%.%.{ o.{ { o. .%.{ &.%.%.%.%.%.%.+. .} %.%.%.%.%.%.%.%.%.%.%.@.} X.@.*.%.%.%.%.%.",
"%.%.%.%.%.%.&.%. .=.%.%.%.%.%.%.%.%.%.%.%.%.%.%.%.} o...[  .+.%.&.{ %.%.%.%.+.} %.X.} %.%.%.%.%.%.%.%.%.%.%.%.} X.*...%.%.%.%.%.",
"%.%.%.%.%.+...*. .| %.%.%.%.%.%.%.%.%.%.%.%.%.%.%.%.x .. .4 %.%.%.%.%.%.%.%.+...*.X.} %.%.%.%.%.%.%.%.%.%.%.%.%.+.*.X.@.%.%.%.%.",
"%.%.%.%.%.+. .*.X.=.%.%.%.%.%.%.%.%.%.%.%.%.&.%.%.&.+.4 3 %.{ %.%.%.%.%.%.%.+. .*.X.} %.%.%.%.%.%.%.%.%.%.%.%.%.%.%.@.%.%.%.%.%.",
"%.%.%.%.%.%. .*.%.%.%.%.%.%.%.%.%.%.%.%.%.%.%.%.%.%.%.%.%.%.%.%.%.%.%.%.%.%.+. .} %.%.%.%.%.%.%.%.%.%.%.%.%.%.%.%.%.%.%.%.%.%.%.",
"%.%.%.%.%.%.%.%.%.%.%.%.%.%.%.%.%.%.%.%.%.%.%.%.%.%.%.%.%.%.%.%.%.%.%.%.%.%.%.%.%.%.%.%.%.%.%.%.%.%.%.%.%.%.%.%.%.%.%.%.%.%.%.3 ",
"%.5 %.%.%.%.%.%.%.%.%.%.%.%.%.%.%.%.%.%.&.%.%.%.%.%.%.%.%.%.%.%.%.3 3 %.%.%.%.%.%.%.%.%.%.%.%.%.%.%.%.%.%.%.%.%.%.%.%.%.%.%.%.%.",
"%.3 %.%.%.%.%.%.%.%.%.%.%.%.%.%.%.%.%.%.%.%.%.%.%.%.%.%.%.%.%.%.%.3 3 %.%.%.%.%.%.%.%.%.%.%.%.%.%.%.%.%.%.%.%.%.%.%.%.%.%.%.%.%."
};
