/* XPM */
static char *result[] = {
/* columns rows colors chars-per-pixel */
"64 64 92 1 ",
"  c #030202",
". c #040E06",
"X c #090909",
"o c #071105",
"O c #121212",
"+ c #111C14",
"@ c #0E2415",
"# c #1A2A1C",
"$ c #1E3024",
"% c gray16",
"& c #362322",
"* c #3A2827",
"= c #372A29",
"- c #3B2A29",
"; c #44322D",
": c #453737",
"> c #4E3533",
", c #533633",
"< c #5A3C39",
"1 c #603F3B",
"2 c #1F422A",
"3 c #254C31",
"4 c #2D4E37",
"5 c #2A5537",
"6 c #64423E",
"7 c #3D4740",
"8 c #396F4D",
"9 c #3E734E",
"0 c #367152",
"q c #3B7451",
"w c #434542",
"e c gray30",
"r c #5C4A49",
"t c #47504A",
"y c #4D514E",
"u c #535353",
"i c #5D5E5D",
"p c #654542",
"a c #6C4642",
"s c #704844",
"d c #734D49",
"f c #6D5350",
"g c #675A59",
"h c #745351",
"j c #745A57",
"k c #745C5A",
"l c #7C5E5B",
"z c #44794F",
"x c #4A7D4E",
"c c #437D54",
"v c #666666",
"b c #6E6463",
"n c #7F7776",
"m c #797979",
"M c #816E6B",
"N c #857574",
"B c #8A7573",
"V c #817877",
"C c #847E7D",
"Z c #8D7E7C",
"A c #51844E",
"S c #448257",
"D c #468459",
"F c #48875B",
"G c #498B5D",
"H c #5D9150",
"J c #5D9B5E",
"K c #609E5E",
"L c #6EA152",
"P c #64A05D",
"I c #6CA55A",
"U c #75AC56",
"Y c #78AE55",
"T c #72AA58",
"R c #7CB255",
"E c #478F63",
"W c #498F62",
"Q c #4D9262",
"! c #539561",
"~ c #579860",
"^ c #589860",
"/ c #868484",
"( c #898584",
") c #8A8887",
"_ c #8A8A8A",
"` c #938B8A",
"' c #919090",
"] c #9B9797",
"[ c #9A9897",
"{ c #9D9B9B",
"} c #A09E9D",
"| c #A4A4A4",
/* pixels */
"9QQQQQQQQQQQQQQQQQQQQQQQQQQQQQQQQU!QQQQQQQQQQ!QQQQQQQQQQQQQQQQQQ",
"9QQQQQQQQQQQQQQQQQQQQQQ!QQQQ!QQQ!UU!QQQQQQQQQQQQQQQQQQQQQQQQQQQQ",
"GQQQQQQQQQQQQQQQQQQQEJTEQQQQQQQQQRR!EY~QQQQQQQQQQQQQQQQQJTWQQQQQ",
"QQQQQQQQQQQQQQQQQQQQQKTEEQQQQQQQQ!RqTR!QQQQQQQQQQQQQQWJTJTWQQQQQ",
"QQQQQQQQQQQQQQQQQQQQQJT!TQQQQQQQQQzURAGQQQQQQQQQQQQQQQJTJUWQQQQQ",
"QQQQQQQQQQQQQQQQQQQQEKT!UEQQQQQQQ!GxxGQQQQQQQQQQQQQQQQJTEJQQQQQQ",
"QQQQQQQQQQQQQQQQQQQQQJJJUEQQQQQQQQQEGQQQQQQQQQQQQQQQQQJUEWQQQQQQ",
"QQQQT!QQQQQQQQQQQQQQQEE!JQQQQQQQQQQQQQQQQQQQQQQQQQQQQQ!JQWQQQQQQ",
"QQEQR!QQQQQQQQQQQQQQQQQQQQQQQQQQQQQQQQQQQQQQQQQQQQQQQQQQQQQQQQQQ",
"QQTQY!QQQQQQQQQQQQQQQQQQQQQQQQQQQQQQQQQQQQQQQQQQQQQQQQQQQQQQQQQQ",
"QQRQR!QQQQQQQQQQQQQQQQQQQQQQQQQQQQQQQQQQQQQQQQQQQQQQQQQQQQQQQQQQ",
"QER!JQQQQ!QQQQQQQQQQQQQ!QQQQQQQ!QQQQQQQ!QQQQQQQQQQQQQQQQQQQQQQQQ",
"QQJQQQQQQQQQQQQQQQQQQQQ!WQGGGGAGGGGGGGGAGQQQQQQQQQQQQQQQQQQQQQQQ",
"QQQQQQQQQQQQQQQQQQQQQQQG$@@@@@@@@@@@@@++2QQQQQQQQQQQQQQQQQQQQQQQ",
"QQQQQ!QQQQQQQQQQQQQQGGGD#  XX X   X XX X#SGGGQQQQQQQQQQQQQQQQQQQ",
"QQQQQQQQQQQQQQQQQQQD2@@#;,,,,,,,,,,,,,,,;#@@2DQQQQQQQQQQQQQQQQQQ",
"QQQQQQQQQQQQQQQQQQQS@   ,sssssssssssssss,   @SQQQ!QQQQQQQDQQQQQQ",
"QQQQQQQQQQQQQQ!QQG54tu-&1sssssssssssssss1&=w745GQQQQQQQGSSGQQQQQ",
"QQQQQQQQQQQQQQQQQS.Om}k6asssssssssssssssa6f/vO.cQQQQQQQQSFSQQQQQ",
"QQQQQQQQQQQQQQQQ34yi'{j6asssssssssssssssa6f/me743QQQQQQQGSQQQQQQ",
"QQQQQ!GQQQQQQQQQ O'||}k6asssssssssssssssa6f/__mO QQQQQQQQQQQQQQQ",
"QQQQQGcDQQQQQQQQ O'||}j6asssssssssssssssa6f(__mO QQQQQQQQQQQQQJQ",
"QQQQQcGcGQQQQQQQ O'||}j6ssssssssssasssssa6f/__mO QQQQQQQQQQQQJRQ",
"QQQQQQcEQQQQQQQQ O_{{[j66sssssssssssssssa6h_''CO QQQQQQQQQJQ!RRQ",
"QQQQQQQQQQQQQQQQ Om__)f6asssssssssssssssa6j}|}'O QQQQQQQQJRJGRUQ",
"QQQ!QQQQQQQ!QQQQ Om__/f6asssssssssssssssa6j}||'O QQQQQQQQ!UYxLWQ",
"QQQQQQQQQQQUPQQQ Xm_)/f1asssssssssssssssa1j}||'O QQQQQQQQGcUU0QQ",
"QQQQQQQ!QQTRKEQQ Om__/f6aaasssssssssssasapj}||'O QQQQQQQQQE8qQQQ",
"QQQQQQQUJETRJQQQ Om__/f666asssssssssssaaa1j}||'+ QQQQQQQQQQQQQQQ",
"QQQQQQETRALJEQQQ Om__)f666aassdhhhd6saa611j}||'O QQQQQQQQQQQQQQ9",
"QQQQQQQ0IRAGQQQQ O_||{j6666666M{}}n166661pj}||'O QQQQQQQQQQQQQQ9",
"QQQQQQQ!c9GQQQQI O'||{kpppppppN||}Npppppppk}||_O IEQQQQQQ~YWQQQQ",
"QQQQQQQQQQQQQQQE Om''_CnnnnV(`]|||{`(VNnnnC_''mO KIQQQQQEJYWQQQQ",
"qQQQQQQQQQQQQQQI Om___/////(]|}}}}{|')/////___mO IEQQQQJT!YWQQQQ",
"9QQQQQQQQQQQQQQ! Om__/grrrhlZ|b%&%v|Zlhrrrg/__mO QQQQQQJT!YQQQQQ",
"WQQQQQQQQQQQQQQQ Om__/r>>,6dB}rXXXu}Bdp,>>r/__mO QQQQQEJYQQQQQQQ",
"!QQQQQQQQQQQQQQQ Om/_/r><1adMMMpuubBlda1<>r/__mO QQQQQQQ!QQQQQQQ",
"WQQQQEQQQQQQQQQQ Om_//r>psssssM}||Bsasssp>r/_/mO QQQQQQQQQQQQQQQ",
"QQQQQT!QQQQQQQQQ Xm__/r,6sss11MBBBlsssss6>r/__mO QQQQQQQQQQQQQQQ",
"QQ!EQU~QQQQQQQQQ Om__/r>asssM66sssssssssp>r//_mO QQQQQQQQQQQQQQQ",
"QQQTQUJQQQQQQQQQ Om__/r>6sssssssssssssss6,r/__mO QQQQQQQQQQQQQQQ",
"QQQY!U~QQQQQQQQQ Om__/r>6sssssssssssssssa,r/)_mX QQQQQQQQQQQQQQQ",
"QQEY!J!QQQQQQQQQ Om__/r>1aassssssssssss61>r/__mO QQQQQQQQQQQQQQQ",
"QQQK!EQQQQQQQQQQ Xm__/r>,,6sssssssssss6,,>r/))mO QQQQQQQQQQQQQQQ",
"QQQQWQQQQQQQQQQQ@$ivvv:&*;>,,,,,,,,,,,,***:vvvi$@QQQQQQQQQQQQQQQ",
"QQQQQQQQQQQQQQQQGc+XXX      X  XX X       XXXX+cFQQQQQQQQQQQQQQQ",
"QQQQQQQQQQQQQQQQQS@.........oo......Xoo.......@SQQQQQQQQQQQQQQQQ",
"QQQQQQQQQQQQQQQQQQSSSDSSDDcDHHHSSSSSDDcDSSSScSSEQQQQQQQ!QQQQQQQQ",
"QQQQQQQQQQQQQQQQQQQQQQ!WQ!WQQPQQQQQQQQQQQQQQQQQQQQQQQQQQQQQQQQQQ",
"QQQQQQQQQQQQQQQQQQQQQQW!WFQ!QQQQQQQQQQQQQQQQQQQQQQQQQQQQQQQQQQQQ",
"QQQQQQQQQQQQQQQQQQQQQQQWDSFQQQQQQQQQQQQQQQ!QQQQQQQQQQQQQQQQQQQQQ",
"QQQQQQQQQQQQQQQQ!QQQQQQEcFcQQQQQ!QQQQQQQQQQQQQQQQQQQQQQQQQQQQQQQ",
"QQQQQQQQQQQQQQQ!QQQQQQQQWc!QQQQQQQQQQQQQQQQQQQQQQQQQQQQQQQQQQQQQ",
"QQQQ!QQQQQQQQQQQQQQQQQQQQ!QQQQQQQQQQQQQQQQQQQQQQQQQQQQQQQQQQQQQQ",
"QQQQQQQQQQQQQQQQQQQQQQQQQQQQQQ^QQQQQQQQQQQQQQQQQQQQQQQQQQQQQQQQQ",
"QQQQQQQQWQQQQQQQQQQQQQQQQQQQQ^R!QQQQQQQQQQQQQQQQQQQQQQQ!JQQQQ!QQ",
"QQQQQQQQ~!QQQQQQQQQQQQQQQQJG!RYQQQQQQQQQQ!!QQQQQQQQQQQEJYEQQQQQQ",
"QQQQQQQEUJQQQQQQQQQQQQQQW!YJ!RTQQQQQQQQQEYJQQQQQQQQQQQEJUW!QQQQQ",
"QQQQQQ~QUJQQQQQQQQQQQQQQQJUYxTEQQQQQQQQ!ETJQQQQQQQQQQQQJT!REQQQQ",
"QQQQQEU~UJQQQQQQQ!QQQQQQQGzUU0QQQQQQQQQUJTJQQQQQQQQQQQQQE~TQQQQQ",
"QQQQQEU^T^QQQQQQQQQQQQQQQQE8qQQQQWQWQQEU!TJQQQQQQQQQQQQQQQQQQQQQ",
"QQQQQEU^QQQQQQQQQQQQQQQQQQQQ!QQQQ!Q!QQEUJEQQQQQQQQQQQQQQQQQQQQQQ",
"QQQQQQQQQQQQQQQQQQQQQQQQQQQQQQQWQWWWQQQQQQQQQQQQQQQQQQQQQQQQQQQ9",
"Q9QQQQQQQQQQQQQQQQQQQQQQQQQQQQQ!WzzWQQQQQQQQ!QQQQQQQQQQQQQQQQQQQ"
};
