/* XPM */
static char *result[] = {
/* columns rows colors chars-per-pixel */
"64 64 174 2 ",
"   c #3B6E4C",
".  c #386F4E",
"X  c #3D714D",
"o  c #3D724D",
"O  c #3E734E",
"+  c #3E744F",
"@  c #367051",
"#  c #367152",
"$  c #387352",
"%  c #3B7552",
"&  c #3C7551",
"*  c #3E7450",
"=  c #44784E",
"-  c #44794F",
";  c #497A4C",
":  c #4A7D4E",
">  c #4A7D4F",
",  c #4C7F4E",
"<  c #4D7F4E",
"1  c #407851",
"2  c #437950",
"3  c #417952",
"4  c #417B53",
"5  c #427B53",
"6  c #447950",
"7  c #427C53",
"8  c #437D54",
"9  c #437E55",
"0  c #437F55",
"q  c #447F56",
"w  c #50814D",
"e  c #51844F",
"r  c #53864F",
"t  c #448056",
"y  c #448157",
"u  c #458157",
"i  c #458258",
"p  c #468358",
"a  c #468459",
"s  c #47855A",
"d  c #47865A",
"f  c #45865C",
"g  c #48875B",
"h  c #48885C",
"j  c #48895C",
"k  c #498A5D",
"l  c #498B5D",
"z  c #4A8B5D",
"x  c #4A8B5E",
"c  c #498D5F",
"v  c #4A8C5E",
"b  c #4A8C5F",
"n  c #4A8D5F",
"m  c #4B8D5F",
"M  c #4B8E5F",
"N  c #4E8E5E",
"B  c #4F8F5E",
"V  c #59995F",
"C  c #5A9A5F",
"Z  c #5B9A5F",
"A  c #5D9B5E",
"S  c #5C9B5F",
"D  c #5D9C5E",
"F  c #5E9C5E",
"G  c #5E9D5E",
"H  c #5F9D5E",
"J  c #609E5D",
"K  c #619E5D",
"L  c #609D5E",
"P  c #609E5E",
"I  c #6DA051",
"U  c #6EA253",
"Y  c #63A05D",
"T  c #64A05D",
"R  c #68A35B",
"E  c #69A35B",
"W  c #6BA55A",
"Q  c #6AA45B",
"!  c #6FA759",
"~  c #6CA65A",
"^  c #6DA65A",
"/  c #6EA75A",
"(  c #6FA859",
")  c #76AB53",
"_  c #72A855",
"`  c #73A955",
"'  c #70A857",
"]  c #74A954",
"[  c #75AA54",
"{  c #74AB57",
"}  c #77AC54",
"|  c #74AC57",
" . c #75AC57",
".. c #75AD57",
"X. c #76AD57",
"o. c #77AE56",
"O. c #78AC53",
"+. c #79AE53",
"@. c #78AE54",
"#. c #79AF55",
"$. c #78AE56",
"%. c #78AF56",
"&. c #71A958",
"*. c #70A859",
"=. c #71AA58",
"-. c #72AA58",
";. c #73AA58",
":. c #73AB58",
">. c #7EB353",
",. c #7FB453",
"<. c #79B055",
"1. c #7AB055",
"2. c #7BB055",
"3. c #7BB155",
"4. c #7CB154",
"5. c #7CB254",
"6. c #7CB255",
"7. c #7CB356",
"8. c #7FB454",
"9. c #7FB555",
"0. c #7EB556",
"q. c #7FB656",
"w. c #468D62",
"e. c #468E63",
"r. c #478F63",
"t. c #4B8F60",
"y. c #4B8F61",
"u. c #488F63",
"i. c #4C8F60",
"p. c #4B9061",
"a. c #489063",
"s. c #499063",
"d. c #4A9062",
"f. c #4A9162",
"g. c #4B9162",
"h. c #4A9063",
"j. c #4A9163",
"k. c #4C9060",
"l. c #4C9061",
"z. c #4C9161",
"x. c #4D9161",
"c. c #4F9361",
"v. c #4C9162",
"b. c #4D9162",
"n. c #4C9262",
"m. c #4D9262",
"M. c #4D9362",
"N. c #4D9263",
"B. c #4D9363",
"V. c #4E9362",
"C. c #4F9362",
"Z. c #4E9363",
"A. c #4E9463",
"S. c #4E9464",
"D. c #4E9564",
"F. c #4F9564",
"G. c #4F9664",
"H. c #509461",
"J. c #519461",
"K. c #519561",
"L. c #539560",
"P. c #529461",
"I. c #529561",
"U. c #539561",
"Y. c #539661",
"T. c #529662",
"R. c #549660",
"E. c #559660",
"W. c #559760",
"Q. c #549661",
"!. c #569760",
"~. c #579860",
"^. c #589860",
"/. c #599960",
/* pixels */
"O x.m.m.m.m.m.m.m.m.m.m.m.m.m.m.m.m.m.m.m.m.m.m.m.m.m.m.m.m.m.m.n.1.H.m.m.m.m.m.m.m.m.m.m.m.m.m.m.m.m.m.m.m.m.m.m.m.m.m.m.m.m.m.",
"o x.m.m.m.m.m.m.m.m.m.m.m.m.m.m.m.m.m.m.m.n.v.m.m.m.m.m.m.m.m.m.n.#.1.I.m.g.m.m.m.m.m.m.m.m.m.m.m.m.m.m.m.m.m.m.m.g.m.m.m.m.m.m.",
"l.m.m.m.m.m.m.m.m.m.m.m.m.m.m.m.m.m.m.m.g.F -.u.m.m.m.m.m.m.m.m.n.1.4.T.e...~.v.m.m.m.m.m.m.m.m.m.m.m.m.m.m.v.s.V  .s.m.m.m.m.m.",
"m.m.m.m.m.m.m.m.m.m.m.m.m.m.m.m.m.m.m.m.g.H { r.h.m.m.m.m.m.m.m.m.H.7.* _ 8.~.v.m.m.m.m.m.m.m.m.m.m.m.m.m.g.S &.W.o.u.m.m.m.m.m.",
"m.m.m.m.m.m.m.m.m.m.m.m.m.m.m.m.m.m.m.m.g.H ;.W.-.s.m.m.m.m.m.m.m.N.= [ q.w M m.m.m.m.m.m.m.m.m.m.m.m.m.m.g.A { W.#.u.m.m.m.m.m.",
"m.m.m.m.m.m.m.m.m.m.m.m.m.m.m.m.m.m.m.m.g.L  .!.X.u.m.m.m.m.m.m.m.m.t.> ; z b.m.m.m.m.m.m.m.m.m.m.m.m.m.m.g.A  .h.R.n.m.m.m.m.m.",
"m.m.m.m.u.n.m.m.m.m.m.m.m.m.m.m.m.m.m.m.m.H.Y.Z %.u.m.m.m.m.m.m.m.m.m.n b b.m.m.m.m.m.m.m.m.m.m.m.m.m.m.m.g.F o.r.n.m.m.m.m.m.m.",
"m.m.m.d.=.Q.n.m.m.m.m.m.m.m.m.m.m.m.m.m.m.m.v.H.~.v.m.m.m.m.m.m.m.m.m.m.m.m.m.m.m.m.m.m.m.m.m.m.m.m.m.m.m.m.H.~.v.m.m.m.m.m.m.m.",
"m.m.u.s.#.W.n.m.m.m.m.m.m.m.m.m.m.m.m.m.m.m.m.m.v.m.m.m.m.m.m.m.m.m.m.m.m.m.m.m.m.m.m.m.m.m.m.m.m.m.m.m.m.m.m.v.m.m.m.m.m.m.m.m.",
"m.v.*.m.%.W.n.m.m.m.m.m.m.m.m.m.m.m.m.m.m.m.m.m.m.m.m.m.m.m.m.m.m.m.m.m.m.m.m.m.m.m.m.m.m.m.m.m.m.m.m.m.m.m.m.m.m.m.m.m.m.m.m.m.",
"m.g.2.C.3.!.n.m.m.m.m.m.m.m.m.m.m.m.m.m.m.m.m.m.m.m.m.m.m.m.m.m.m.m.m.m.m.m.m.m.m.m.m.m.m.m.m.m.m.m.m.m.m.m.m.m.m.m.m.m.m.m.m.m.",
"m.g.5.J.F H.m.m.m.m.m.m.m.m.m.m.m.m.m.m.m.m.m.m.m.m.m.m.m.m.m.m.m.m.m.m.m.m.m.m.m.m.m.m.m.m.m.m.m.m.m.m.m.m.m.m.m.m.m.m.m.m.m.m.",
"m.n.J C.f.m.m.m.m.m.m.m.m.m.m.m.m.m.m.m.m.m.m.m.m.m.m.m.m.m.m.m.m.m.m.m.m.m.m.m.m.m.m.m.m.m.m.m.m.m.m.m.m.m.m.m.m.m.m.m.m.m.m.m.",
"m.m.h.m.m.m.m.m.m.m.m.m.m.m.m.m.m.m.m.m.m.m.m.m.m.m.m.m.m.m.m.m.m.m.m.m.m.m.m.m.m.m.m.m.m.m.m.m.m.m.m.m.m.m.m.m.m.m.m.m.m.m.m.m.",
"m.m.m.m.m.m.m.m.m.m.m.m.m.m.m.m.m.m.m.m.m.m.m.m.m.m.m.m.m.m.m.m.m.m.m.m.m.m.m.m.m.m.m.m.m.m.m.m.m.m.m.m.m.m.m.m.m.m.m.m.m.m.m.m.",
"m.m.m.m.m.m.m.m.m.m.m.m.m.m.m.m.m.m.m.m.m.m.m.m.m.m.m.m.m.m.m.m.m.m.m.m.m.m.A.m.m.m.m.m.m.m.m.m.m.m.m.m.m.m.m.m.m.A.m.m.m.m.m.m.",
"m.m.m.m.m.m.m.m.m.m.m.m.m.m.m.m.m.m.m.m.m.m.m.m.m.m.m.m.m.m.m.m.m.m.m.m.m.S.a l.M.m.m.m.m.m.m.m.m.m.m.m.m.m.m.M.l.a S.m.m.m.m.m.",
"m.m.m.m.m.m.m.m.m.m.m.m.m.m.m.m.m.m.m.m.m.m.m.m.m.m.m.m.m.m.m.m.m.m.m.m.B.d u i t.m.m.m.m.m.m.m.m.m.m.m.m.m.m.t.i u d B.m.m.m.m.",
"m.m.m.m.m.m.m.m.m.m.m.m.m.m.m.m.m.m.m.m.m.m.m.m.m.m.m.m.m.m.m.m.m.m.m.m.Z.y d 0 M m.m.m.m.m.m.m.m.m.m.m.m.m.m.M 0 d y Z.m.m.m.m.",
"m.m.m.m.m.m.B.m.m.m.m.m.m.m.m.m.m.m.m.m.m.m.m.m.m.m.m.m.m.m.m.m.m.m.m.m.m.F.q l.B.m.m.m.m.m.m.m.m.m.m.m.m.m.m.B.l.q F.m.m.m.m.m.",
"m.m.m.m.m.A.j z.m.m.m.m.m.m.m.m.m.m.m.m.m.m.m.m.m.m.m.m.m.m.m.m.m.g.m.m.m.m.A.m.m.m.m.m.m.m.m.m.m.m.m.m.m.m.m.m.m.A.m.m.m.m.g.m.",
"m.m.m.m.M.l 8 s l.m.m.m.m.m.m.m.m.m.m.m.m.m.m.m.m.m.m.m.m.m.m.m.m.D n.m.m.m.m.m.m.m.m.m.m.m.m.m.m.m.m.m.m.m.m.m.m.m.m.m.m.n.D m.",
"m.m.m.m.Z.7 k 5 v m.m.m.m.m.m.m.m.m.m.m.m.n.v.m.m.m.m.m.m.m.m.m.n.5.F V.m.v.m.m.m.m.m.m.m.m.m.m.m.m.m.m.m.m.m.m.m.m.g.m.V.F 5.n.",
"m.m.m.m.m.G.5 t.B.m.m.m.m.m.m.m.m.m.m.m.n.K.^.v.m.m.m.m.m.m.m.m.n.<.>.I.g.V c.m.m.m.m.m.m.m.m.m.m.m.m.m.m.m.m.m.m.c.V g.U.>.<.n.",
"m.m.m.m.m.m.A.m.m.m.m.n.m.m.m.m.m.m.m.m.f.L X.r.n.m.m.m.m.m.m.m.n.-.6.N L.6.^.v.m.m.m.m.m.m.m.m.m.m.m.m.m.m.m.m.v.^.6.L.N 6.=.n.",
"m.m.m.m.m.m.m.m.m.m.v.Q.J.n.m.m.m.m.m.m.g.H :.d.W.n.m.m.m.m.m.m.m.r._ < +.) R.n.m.m.m.m.m.m.m.m.m.m.m.m.m.m.m.m.n.E.) +., _ r.m.",
"m.m.m.m.m.m.m.m.m.n.V. .T h.m.m.m.m.m.m.g.H ;.~.%.u.m.m.m.m.m.m.m.M.# ] } 2 c m.m.m.m.m.m.m.m.m.m.m.m.m.m.m.m.m.m.c 6 } ] # M.m.",
"m.m.m.m.m.m.n.U.V.r.&.,.K h.m.m.m.m.m.m.g.D ( ~.X.u.m.m.m.m.m.m.m.m.D.% . p.M.m.m.m.m.m.m.m.m.m.m.m.m.m.m.m.m.m.m.M.p.. % D.m.m.",
"m.m.m.m.m.m.u.o.H w.! 5.H h.m.m.m.m.m.m.m.v.s.C :.u.m.m.m.m.m.m.m.m.m.Z.A.m.m.m.m.m.m.m.m.m.m.m.m.m.m.m.m.m.m.m.m.m.m.Z.Z.m.m.l.",
"m.m.m.m.m.m.a.' 9.e I G s.m.m.m.m.m.m.m.m.m.m.n.g.m.m.m.m.m.m.m.m.m.m.m.m.m.m.m.m.m.m.m.m.m.m.m.m.m.m.m.m.m.m.m.m.m.m.m.m.m.z.X ",
"m.m.m.m.m.m.A.$ U 0.r f Z.m.m.V.V.m.m.m.m.m.m.m.m.m.m.m.m.m.m.m.m.m.m.m.m.m.m.m.m.m.m.m.m.m.m.m.V.V.m.m.m.m.m.m.m.m.C.m.m.m.x.+ ",
"m.m.m.m.m.m.m.S.4   k Z.m.m.a.Q Q s.m.m.m.m.m.m.m.m.m.m.m.m.m.m.m.m.m.m.m.m.m.m.m.m.m.m.m.m.m.s.E ~ s.m.m.m.m.m.v.~.$.s.m.m.m.m.",
"m.m.m.m.m.m.m.m.m.m.m.m.m.m.m.s.R ~ u.m.m.m.m.m.m.m.m.m.m.m.m.m.m.m.m.m.m.m.m.m.m.m.m.m.m.m.a.Q R Y / u.m.m.m.m.g.~.$.s.m.m.m.m.",
"+ x.m.m.m.m.m.m.m.m.m.m.m.m.a.Q W h.m.m.m.m.m.m.m.m.m.m.m.m.m.m.m.m.m.m.m.m.m.m.m.m.m.m.m.m.m.h.E ~ h.m.m.m.g.C | U.$.s.m.m.m.m.",
"X x.m.m.m.m.m.m.m.m.m.m.m.m.m.C.C.m.m.m.m.m.m.m.m.m.m.m.m.m.m.m.m.m.m.m.m.m.m.m.m.m.m.m.m.m.m.m.C.C.m.m.m.m.g.Z  .Y.#.s.m.m.m.m.",
"l.m.m.m.m.m.m.m.m.m.m.m.m.m.m.m.m.m.m.m.m.m.m.m.m.m.m.m.m.m.m.m.m.m.m.m.m.m.m.m.m.m.m.m.m.m.m.m.m.m.m.m.m.m.g.S o.s.K.m.m.m.m.m.",
"m.m.m.m.m.m.m.m.m.m.m.m.m.m.m.m.m.m.m.m.m.m.m.m.m.m.A.m.m.m.m.m.m.m.m.m.m.m.m.m.m.m.m.m.m.m.m.m.m.m.m.m.m.m.m.C.U.n.m.m.m.m.m.m.",
"m.m.m.m.m.s.n.m.m.m.m.m.m.m.m.m.m.m.m.m.m.m.m.m.B.i.1 F.m.m.m.m.m.m.m.m.m.m.m.m.m.m.m.m.m.m.m.m.m.m.m.m.m.m.m.m.m.m.m.m.m.m.m.m.",
"m.m.m.m.h.-.!.n.m.m.m.m.m.m.m.m.m.m.m.m.m.m.m.m.n 3 M 1 Z.m.m.m.m.m.m.m.m.m.m.m.m.m.m.m.m.m.m.m.m.m.m.m.m.m.m.m.m.m.m.m.m.m.m.m.",
"m.m.m.u.u.%.~.v.m.m.m.m.m.m.m.m.m.m.m.m.m.m.m.m.x.h 3 M m.m.m.m.m.m.m.m.m.m.m.m.m.s.g.m.m.m.m.m.m.m.m.m.m.m.m.m.m.m.m.m.m.m.m.m.",
"m.m.g.&.V.o.~.v.m.m.m.m.m.m.m.m.m.m.m.m.m.m.m.m.m.b.x B.m.m.m.m.m.m.m.m.m.m.m.u.r.~ Z g.m.m.m.m.m.m.m.m.m.m.m.m.m.m.m.m.m.m.m.m.",
"m.m.d.1.H.1.^.v.m.m.m.m.m.m.m.m.m.m.m.m.m.m.m.m.m.m.M.m.m.m.m.m.m.m.m.m.m.m.s.^ U.{ H g.m.m.m.m.m.m.m.m.m.m.m.m.m.m.m.m.m.m.m.m.",
"m.m.h.4.U.S H.m.m.m.m.m.m.m.m.m.m.m.m.m.m.m.m.m.m.m.m.m.m.m.m.m.m.m.m.m.m.m.u.o.~. .P g.m.m.m.m.m.m.m.m.m.m.m.m.m.m.m.m.m.m.m.m.",
"m.m.v.H C.g.m.m.m.m.m.m.m.m.m.m.m.m.m.m.m.m.m.m.m.m.m.m.m.m.m.m.m.m.m.m.m.m.u.%.Z Z Y.n.m.m.m.m.m.m.m.m.m.m.m.m.m.m.m.m.m.m.m.m.",
"m.m.m.f.m.m.m.m.m.m.m.m.m.m.m.m.m.m.m.m.m.m.m.m.m.m.m.m.m.u.m.m.m.m.m.m.m.m.g.H U.h.n.m.m.m.m.m.m.m.m.m.m.m.m.m.m.m.m.m.m.m.m.m.",
"m.m.m.m.m.m.m.m.m.m.m.m.m.m.m.m.m.m.m.m.m.m.m.m.m.m.m.n.v.^ r.m.m.m.m.m.m.m.m.j.n.m.m.m.m.m.m.m.m.m.m.m.m.m.m.m.m.m.m.m.m.m.m.m.",
"m.m.m.m.m.m.m.m.m.m.m.m.m.m.m.m.m.m.m.m.m.m.m.m.m.m.m.J.^ Y W m.m.m.m.m.m.m.m.m.m.m.m.m.m.m.m.m.m.m.m.m.m.m.m.m.m.m.m.m.m.m.m.m.",
"m.m.m.m.m.m.m.m.m.m.m.m.m.m.m.m.m.m.m.m.m.m.m.m.m.m.m.H.Q R R m.m.m.m.m.m.m.m.m.m.m.m.m.m.m.m.m.m.m.m.m.m.m.m.m.m.m.m.m.m.m.m.m.",
"m.m.m.m.m.m.m.m.m.m.m.m.m.m.m.m.m.m.m.m.m.m.m.m.m.Z.m.n.v.Q u.m.m.m.m.m.m.m.m.m.m.m.m.m.m.m.m.m.m.m.m.m.m.m.m.m.m.m.m.m.m.m.m.m.",
"m.m.m.m.m.m.m.m.m.m.m.m.m.m.m.m.m.m.m.m.m.m.m.M.l.s A.m.m.a.m.m.m.m.m.m.m.m.m.m.m.m.m.m.m.m.m.m.m.m.m.m.m.m.m.m.m.m.m.m.m.m.m.m.",
"m.m.m.m.m.m.m.m.m.m.m.m.m.m.m.m.m.m.m.m.m.m.m.i.p t g M.m.m.m.m.m.m.m.m.m.m.m.m.m.m.m.m.m.m.m.m.m.m.m.m.m.m.m.m.m.m.m.m.m.m.m.m.",
"m.m.m.m.m.m.m.m.m.m.m.m.m.m.m.m.m.m.m.m.m.m.m.m 9 g q Z.m.m.m.m.m.m.m.m.m.m.m.m.m.m.m.m.m.m.m.m.m.m.m.m.m.m.m.m.m.m.m.m.m.m.m.m.",
"m.m.m.m.m.m.m.m.m.m.m.m.m.m.m.m.m.m.m.m.m.m.m.B.k.9 F.m.m.m.m.m.m.m.m.m.m.m.m.m.m.m.m.m.m.m.m.m.m.m.m.m.m.m.m.m.m.m.m.m.m.m.m.m.",
"m.m.m.m.m.m.m.m.m.m.m.m.m.m.m.m.m.m.m.m.m.m.m.m.m.A.m.m.m.m.g.m.m.m.m.m.m.m.m.m.m.m.m.m.m.m.m.m.m.m.m.m.m.m.m.m.m.m.m.m.m.m.m.m.",
"m.m.m.m.m.m.m.m.m.m.m.m.m.m.m.m.m.m.m.m.m.m.m.m.m.m.m.m.m.n.S m.m.m.m.m.m.m.m.m.m.m.m.m.m.m.m.m.m.m.m.m.m.m.m.m.v.m.m.m.m.m.m.m.",
"m.m.m.m.m.m.m.m.v.m.m.m.m.m.m.m.m.m.m.m.m.m.m.m.m.m.v.m.V.A 5.n.m.m.m.m.m.m.m.m.m.v.m.m.m.m.m.m.m.m.m.m.m.m.m.H./.v.m.m.m.m.m.m.",
"m.m.m.m.m.m.m.v.~.H.m.m.m.m.m.m.m.m.m.m.m.m.m.m.m.C.~.g.I.>.#.n.m.m.m.m.m.m.m.m.v.!.J.m.m.m.m.m.m.m.m.m.m.m.g.S %.r.v.m.m.m.m.m.",
"m.m.m.m.m.m.n.r.o.F g.m.m.m.m.m.m.m.m.m.m.m.m.m.v.^.3.P.B 6.;.n.m.m.m.m.m.m.m.n.r.X.L g.m.m.m.m.m.m.m.m.m.m.g.Z X.h.!.n.m.m.m.m.",
"m.m.m.m.m.n.R.h. .A g.m.m.m.m.m.m.m.m.m.m.m.m.m.n.E.O.+.: ` r.m.m.m.m.m.m.m.n.Q.h.:.H g.m.m.m.m.m.m.m.m.m.m.v.V &.R.1.a.m.m.m.m.",
"m.m.m.m.m.u.#.W.| A g.m.m.m.m.m.m.m.m.m.m.m.m.m.m.c - @.[ @ M.m.m.m.m.m.m.m.u.$.~.;.H g.m.m.m.m.m.m.m.m.m.m.m.v.s.!.{ s.m.m.m.m.",
"m.m.m.m.m.u.o.W.&.S g.m.m.m.m.m.m.m.m.m.m.m.m.m.m.M.y.. & D.m.m.m.m.m.m.m.m.u.X.~.*.D g.m.m.m.m.m.m.m.m.m.m.m.m.m.n.h.m.m.m.m.m.",
"m.m.m.m.m.s. .V h.n.m.m.m.m.m.m.m.m.m.m.m.m.m.m.m.m.m.Z.B.m.m.m.m.m.m.m.m.m.u.{ C s.n.m.m.m.m.m.m.m.m.m.m.m.m.m.m.m.m.m.m.m.m.l.",
"m.x.m.m.m.m.g.m.m.m.m.m.m.m.m.m.m.m.m.m.m.m.m.m.m.m.m.m.m.m.m.m.m.x.x.m.m.m.m.g.m.m.m.m.m.m.m.m.m.m.m.m.m.m.m.m.m.m.m.m.m.m.x.O ",
"m.O l.m.m.m.m.m.m.m.m.m.m.m.m.m.m.m.m.m.m.m.m.m.m.m.m.m.m.m.m.m.m.+ X l.m.m.m.m.m.m.m.m.m.m.m.m.m.m.m.m.m.m.m.m.m.m.m.m.m.m.m.m."
};
