/* XPM */
static char *result[] = {
/* columns rows colors chars-per-pixel */
"64 64 170 2 ",
"   c #43403E",
".  c #3B6E4C",
"X  c #386F4E",
"o  c #3D714D",
"O  c #3D724D",
"+  c #3E734E",
"@  c #3E744F",
"#  c #367051",
"$  c #367152",
"%  c #387352",
"&  c #3B7552",
"*  c #3C7551",
"=  c #3E7450",
"-  c #595652",
";  c #44784E",
":  c #44794F",
">  c #497A4C",
",  c #4A7D4E",
"<  c #4A7D4F",
"1  c #4C7F4E",
"2  c #417B53",
"3  c #427B53",
"4  c #447950",
"5  c #427C53",
"6  c #437D54",
"7  c #437E55",
"8  c #437F55",
"9  c #447F56",
"0  c #696A6A",
"q  c #50814D",
"w  c #51844F",
"e  c #53864F",
"r  c #448056",
"t  c #448157",
"y  c #458157",
"u  c #458258",
"i  c #468358",
"p  c #468459",
"a  c #47855A",
"s  c #47865A",
"d  c #45865C",
"f  c #48875B",
"g  c #48895C",
"h  c #498A5D",
"j  c #498B5D",
"k  c #4A8B5D",
"l  c #498D5F",
"z  c #4A8C5E",
"x  c #4A8C5F",
"c  c #4A8D5F",
"v  c #4B8D5F",
"b  c #4B8E5F",
"n  c #4E8E5E",
"m  c #4F8F5E",
"M  c #59995F",
"N  c #5A9A5F",
"B  c #5B9A5F",
"V  c #5D9B5E",
"C  c #5C9B5F",
"Z  c #5D9C5E",
"A  c #5E9C5E",
"S  c #5E9D5E",
"D  c #5F9D5E",
"F  c #609E5D",
"G  c #619E5D",
"H  c #609D5E",
"J  c #6DA051",
"K  c #6EA253",
"L  c #63A05D",
"P  c #64A05D",
"I  c #68A35B",
"U  c #69A35B",
"Y  c #6BA55A",
"T  c #6AA45B",
"R  c #6FA759",
"E  c #6CA65A",
"W  c #6DA65A",
"Q  c #6EA75A",
"!  c #76AB53",
"~  c #72A855",
"^  c #73A955",
"/  c #70A857",
"(  c #74A954",
")  c #75AA54",
"_  c #74AB57",
"`  c #77AC54",
"'  c #74AC57",
"]  c #75AC57",
"[  c #75AD57",
"{  c #76AD57",
"}  c #77AE56",
"|  c #78AC53",
" . c #79AE53",
".. c #78AE54",
"X. c #79AF55",
"o. c #78AE56",
"O. c #78AF56",
"+. c #71A958",
"@. c #70A859",
"#. c #71AA58",
"$. c #72AA58",
"%. c #73AA58",
"&. c #73AB58",
"*. c #7EB353",
"=. c #7FB453",
"-. c #79B055",
";. c #7AB055",
":. c #7BB055",
">. c #7BB155",
",. c #7CB154",
"<. c #7CB254",
"1. c #7CB255",
"2. c #7CB356",
"3. c #7FB454",
"4. c #7FB555",
"5. c #7EB556",
"6. c #7FB656",
"7. c #468D62",
"8. c #468E63",
"9. c #478F63",
"0. c #4B8F60",
"q. c #4B8F61",
"w. c #488F63",
"e. c #4C8F60",
"r. c #4B9061",
"t. c #489063",
"y. c #499063",
"u. c #4A9062",
"i. c #4A9162",
"p. c #4B9162",
"a. c #4A9063",
"s. c #4A9163",
"d. c #4C9060",
"f. c #4C9061",
"g. c #4C9161",
"h. c #4D9161",
"j. c #4F9361",
"k. c #4C9162",
"l. c #4D9162",
"z. c #4C9262",
"x. c #4D9262",
"c. c #4D9362",
"v. c #4D9263",
"b. c #4D9363",
"n. c #4E9362",
"m. c #4F9362",
"M. c #4E9363",
"N. c #4E9463",
"B. c #4E9464",
"V. c #4E9564",
"C. c #4F9564",
"Z. c #4F9664",
"A. c #509461",
"S. c #519461",
"D. c #519561",
"F. c #539560",
"G. c #529461",
"H. c #529561",
"J. c #539561",
"K. c #539661",
"L. c #529662",
"P. c #549660",
"I. c #559660",
"U. c #559760",
"Y. c #549661",
"T. c #569760",
"R. c #579860",
"E. c #589860",
"W. c #599960",
"Q. c #847E87",
/* pixels */
"+ h.x.x.x.x.x.x.x.x.x.x.x.x.x.x.x.x.x.x.x.x.x.x.x.x.x.x.x.x.x.x.z.;.A.x.x.x.x.x.x.x.x.x.x.x.x.x.x.x.x.x.x.x.x.x.x.x.x.x.x.x.x.x.",
"O h.x.x.x.x.x.x.x.x.x.x.x.x.x.x.x.x.x.x.x.z.k.x.x.x.x.x.x.x.x.x.z.X.;.H.x.p.x.x.x.x.x.x.x.x.x.x.x.x.x.x.x.x.x.x.x.p.x.x.x.x.x.x.",
"f.x.x.x.x.x.x.x.x.x.x.x.x.x.x.x.x.x.x.x.p.A $.w.x.x.x.x.x.x.x.x.z.;.,.L.8.[ R.k.x.x.x.x.x.x.x.x.x.x.x.x.x.x.k.y.M ] y.x.x.x.x.x.",
"x.x.x.x.x.x.x.x.x.x.x.x.x.x.x.x.x.x.x.x.p.D _ 9.a.x.x.x.x.x.x.x.x.A.2.= ~ 3.R.k.x.x.x.x.x.x.x.x.x.x.x.x.x.p.C +.U.} w.x.x.x.x.x.",
"x.x.x.x.x.x.x.x.x.x.x.x.x.x.x.x.x.x.x.x.p.D %.U.$.y.x.x.x.x.x.x.x.v.; ) 6.q b x.x.x.x.x.x.x.x.x.x.x.x.x.x.p.V _ U.X.w.x.x.x.x.x.",
"x.x.x.x.x.x.x.x.x.x.x.x.x.x.x.x.x.x.x.x.p.H ] T.{ w.x.x.x.x.x.x.x.x.0.< > k l.x.x.x.x.x.x.x.x.x.x.x.x.x.x.p.V ] a.P.z.x.x.x.x.x.",
"x.x.x.x.w.z.x.x.x.x.x.x.x.x.x.x.x.x.x.x.x.A.K.B O.w.x.x.x.x.x.x.x.x.x.c x l.x.x.x.x.x.x.x.x.x.x.x.x.x.x.x.p.A } 9.z.x.x.x.x.x.x.",
"x.x.x.u.#.Y.z.x.x.x.x.x.x.x.x.x.x.x.x.x.x.x.k.A.R.k.x.x.x.x.x.x.x.x.x.x.x.x.x.x.x.x.x.x.x.x.x.x.x.x.x.x.x.x.A.R.k.x.x.x.x.x.x.x.",
"x.x.w.y.X.U.z.x.x.x.x.x.x.x.x.x.x.x.x.x.x.x.x.x.k.x.x.x.x.x.x.x.x.x.x.x.x.x.x.x.x.x.x.x.x.x.x.x.x.x.x.x.x.x.x.k.x.x.x.x.x.x.x.x.",
"x.k.@.x.O.U.z.x.x.x.x.x.x.x.x.x.x.x.x.x.x.x.x.x.x.x.x.x.x.x.x.x.x.x.x.x.x.x.x.x.x.x.x.x.x.x.x.x.x.x.x.x.x.x.x.x.x.x.x.x.x.x.x.x.",
"x.p.:.m.>.T.z.x.x.x.x.x.x.x.x.x.x.x.x.x.x.x.x.x.x.x.x.x.x.x.x.x.x.x.x.x.x.x.x.x.x.x.x.x.x.x.x.x.x.x.x.x.x.x.x.x.x.x.x.x.x.x.x.x.",
"x.p.<.S.A A.x.x.x.x.x.x.x.x.x.x.x.x.x.x.x.x.x.x.x.x.x.x.x.x.x.x.x.x.x.x.x.x.x.x.x.x.x.x.x.x.x.x.x.x.x.x.x.x.x.x.x.x.x.x.x.x.x.x.",
"x.z.F m.i.x.x.x.x.x.x.x.x.x.x.x.x.x.x.x.x.x.x.x.x.x.x.x.x.x.x.x.x.x.x.x.x.x.x.x.x.+ + + + x.x.x.x.x.x.x.x.x.x.x.x.x.x.x.x.x.x.x.",
"x.x.a.x.x.x.x.x.x.x.x.x.x.x.x.+ + + + + x.x.x.x.x.x.+ + + + + + + + + + + + + + + - - -   + + x.x.x.x.x.x.x.x.x.x.x.x.x.x.x.x.x.",
"x.x.x.x.x.x.x.x.x.x.x.x.x.x.x.- - - - - + + + x.+ +       - - - - - - - - - - - 0 0 0 0 - - - x.x.x.x.x.x.x.x.x.x.x.x.x.x.x.x.x.",
"x.x.x.x.x.x.x.x.x.x.x.x.x.x.x.- Q.0 0 0 0 -   +   - - - - 0 0 0 0 0 0 0 0 0 0 0 0 0 Q.Q.Q.Q.- x.x.x.x.x.x.x.x.x.x.N.x.x.x.x.x.x.",
"x.x.x.x.x.x.x.x.x.x.x.x.x.x.x.- Q.Q.Q.Q.0 0 -   - 0 0 0 0 Q.Q.Q.Q.Q.Q.Q.Q.Q.Q.Q.Q.Q.Q.Q.Q.0 - x.x.x.x.x.x.x.x.c.f.p B.x.x.x.x.x.",
"x.x.x.x.x.x.x.x.x.x.x.x.x.x.x.0 Q.Q.Q.Q.Q.0 0 - - 0 0 0 Q.Q.Q.Q.Q.Q.Q.Q.Q.Q.Q.Q.Q.Q.Q.Q.Q.0 - x.x.x.x.x.x.x.x.0.u y s b.x.x.x.x.",
"x.x.x.x.x.x.x.x.x.x.x.x.x.x.x.0 Q.Q.Q.Q.Q.0 0 - - 0 0 Q.Q.Q.Q.Q.Q.Q.0 0 0 0 0 0 Q.Q.Q.Q.Q.0 - x.x.x.x.x.x.x.x.b 8 s t M.x.x.x.x.",
"x.x.x.x.x.x.b.x.x.x.x.x.x.x.x.0 0 Q.Q.Q.Q.0 - -   - 0 0 Q.Q.Q.Q.Q.Q.Q.Q.0 0 Q.Q.Q.Q.Q.Q.0 0 + x.x.x.x.x.x.x.x.b.f.9 C.x.x.x.x.x.",
"x.x.x.x.x.N.g g.x.x.x.x.x.x.x.0 0 Q.Q.Q.Q.Q.-       - - 0 0 0 0 Q.Q.Q.Q.Q.Q.Q.Q.Q.0 0 0 0 - + x.x.x.x.x.x.x.x.x.x.N.x.x.x.x.p.x.",
"x.x.x.x.c.j 6 a f.x.x.x.x.x.x.- 0 Q.Q.0 Q.Q.0 - - - -   - - - - - - 0 0 0 0 0 0 - - 0 0 -   + x.x.x.x.x.x.x.x.x.x.x.x.x.x.z.Z x.",
"x.x.x.x.M.5 h 3 z x.x.x.x.x.x.- 0 Q.Q.0 Q.Q.0 - 0 - - - - - - -     - - - - - -   - - -   + x.x.x.x.x.x.x.x.x.x.x.x.p.x.n.A <.z.",
"x.x.x.x.x.Z.3 0.b.x.x.x.x.x.x.- 0 Q.Q.0 0 Q.0 -   0 - 0 0 0 0 0 - - - -     0 -     - - -   + x.x.x.x.x.x.x.x.x.x.j.M p.J.*.-.z.",
"x.x.x.x.x.x.N.x.x.x.x.z.x.x.x.- 0 Q.Q.0 0 Q.0 -   - 0 0 Q.Q.Q.Q.Q.0 0 0 - 0 - -   - 0 0 0 - + x.x.x.x.x.x.x.x.x.k.E.1.F.n 1.#.z.",
"x.x.x.x.x.x.x.x.x.x.k.Y.S.z.x.- 0 Q.Q.0 Q.Q.0 - - 0 0 Q.Q.Q.Q.Q.Q.Q.0 0 0 - - - - 0 0 0 0 -   x.x.x.x.x.x.x.x.x.z.I.!  .1 ~ 9.x.",
"x.x.x.x.x.x.x.x.x.z.n.] P a.x.- 0 Q.Q.0 Q.Q.0 - - 0 0 0 Q.Q.Q.Q.Q.Q.0 Q.0 0 -   - 0 Q.0 0 -   x.x.x.x.x.x.x.x.x.x.l 4 ` ( $ c.x.",
"x.x.x.x.x.x.z.J.n.9.+.=.G a.x.- 0 Q.Q.Q.Q.Q.-   - 0 Q.Q.0 Q.Q.Q.Q.0 Q.Q.Q.0 - - 0 Q.Q.Q.0 -   x.x.x.x.x.x.x.x.x.x.c.r.X & V.x.x.",
"x.x.x.x.x.x.w.} D 7.R <.D a.x.- 0 Q.Q.Q.Q.Q.-   - Q.Q.Q.Q.0 0 0 0 Q.Q.Q.Q.0 - - 0 Q.Q.Q.Q.0 - x.x.x.x.x.x.x.x.x.x.x.x.M.M.x.x.f.",
"x.x.x.x.x.x.t./ 4.w J S y.x.x.- 0 Q.Q.Q.Q.0 - - 0 Q.Q.Q.Q.0 - - 0 Q.Q.Q.Q.0 - - 0 Q.Q.Q.Q.0 - x.x.x.x.x.x.x.x.x.x.x.x.x.x.x.g.o ",
"x.x.x.x.x.x.N.% K 5.e d M.x.x.- 0 Q.Q.Q.Q.0 - - 0 Q.Q.Q.Q.0 - - 0 Q.Q.Q.Q.0 - - 0 Q.Q.Q.Q.0 - x.n.n.x.x.x.x.x.x.x.x.m.x.x.x.h.@ ",
"x.x.x.x.x.x.x.B.2 . h M.x.x.t.- 0 Q.Q.Q.Q.0 - - 0 Q.Q.Q.Q.0 0 0 0 Q.Q.Q.Q.-   - Q.Q.Q.Q.Q.0 - y.U E y.x.x.x.x.x.k.R.o.y.x.x.x.x.",
"x.x.x.x.x.x.x.x.x.x.x.x.x.x.x.  - 0 Q.Q.Q.0 - - 0 Q.Q.Q.Q.Q.Q.Q.Q.Q.Q.Q.0 -   - Q.Q.Q.Q.Q.0 - T I L Q w.x.x.x.x.p.R.o.y.x.x.x.x.",
"@ h.x.x.x.x.x.x.x.x.x.x.x.x.t.  - 0 0 Q.0 -   - 0 0 Q.Q.Q.Q.Q.Q.Q.Q.Q.0 0 - - 0 Q.Q.0 Q.Q.0 - a.U E a.x.x.x.p.N ' J.o.y.x.x.x.x.",
"o h.x.x.x.x.x.x.x.x.x.x.x.x.x.  - 0 0 0 0 - - - - 0 0 0 Q.Q.Q.Q.Q.Q.Q.0 0 - - 0 Q.Q.0 Q.Q.0 - x.m.m.x.x.x.x.p.B ] K.X.y.x.x.x.x.",
"f.x.x.x.x.x.x.x.x.x.x.x.x.x.x.+ - 0 0 0 -   - - 0 0 0 0 0 Q.Q.Q.Q.Q.0 0 0   - 0 Q.0 0 Q.Q.0 - x.x.x.x.x.x.x.p.C } y.D.x.x.x.x.x.",
"x.x.x.x.x.x.x.x.x.x.x.x.x.x.x.+   - - -     - 0 0   - - - - 0 0 0 0 0 - 0 0 - 0 Q.0 0 Q.Q.0 - x.x.x.x.x.x.x.x.m.J.z.x.x.x.x.x.x.",
"x.x.x.x.x.y.z.x.x.x.x.x.x.x.x.x.+   - - -   - 0 - - - -     - - - - - - - 0 0 0 Q.Q.0 Q.Q.0 - x.x.x.x.x.x.x.x.x.x.x.x.x.x.x.x.x.",
"x.x.x.x.a.$.T.z.x.x.x.x.x.x.x.+   - 0 0 - -   0 0 0 0 0 - - - - - -   - - - -   Q.Q.0 Q.Q.0 - x.x.x.x.x.x.x.x.x.x.x.x.x.x.x.x.x.",
"x.x.x.w.w.O.R.k.x.x.x.x.x.x.x.+ - 0 0 0 0 - Q.Q.Q.Q.Q.Q.Q.Q.0 0 0 0 - -       - - Q.Q.Q.Q.0 0 x.x.x.x.x.x.x.x.x.x.x.x.x.x.x.x.x.",
"x.x.p.+.n.} R.k.x.x.x.x.x.x.x.+ 0 0 Q.Q.0 Q.Q.Q.0 0 Q.Q.Q.Q.Q.Q.Q.Q.0 0 -   - - 0 0 Q.Q.Q.0 0 x.x.x.x.x.x.x.x.x.x.x.x.x.x.x.x.x.",
"x.x.u.;.A.;.E.k.x.x.x.x.x.x.x.- 0 Q.Q.Q.Q.Q.0 0 0 0 0 0 Q.Q.Q.Q.Q.Q.Q.0 0 - - 0 0 Q.Q.Q.Q.Q.0 x.x.x.x.x.x.x.x.x.x.x.x.x.x.x.x.x.",
"x.x.a.,.J.C A.x.x.x.x.x.x.x.x.- 0 Q.Q.Q.Q.Q.Q.Q.Q.Q.Q.Q.Q.Q.Q.Q.Q.Q.0 0 0 - - 0 0 Q.Q.Q.Q.Q.0 x.x.x.x.x.x.x.x.x.x.x.x.x.x.x.x.x.",
"x.x.k.D m.p.x.x.x.x.x.x.x.x.x.- 0 Q.Q.Q.Q.Q.Q.Q.Q.Q.Q.Q.Q.Q.Q.Q.Q.0 0 0 0 -   - 0 0 Q.Q.Q.Q.- x.x.x.x.x.x.x.x.x.x.x.x.x.x.x.x.x.",
"x.x.x.i.x.x.x.x.x.x.x.x.x.x.x.- 0 Q.Q.Q.0 0 0 0 0 0 0 0 0 0 0 0 0 - - - -   +   - 0 0 0 0 0 - x.x.x.x.x.x.x.x.x.x.x.x.x.x.x.x.x.",
"x.x.x.x.x.x.x.x.x.x.x.x.x.x.x.x.x.x.x.x.x.x.x.x.x.x.x.z.k.W 9.x.x.x.x.x.x.x.x.s.z.x.x.x.x.x.x.x.x.x.x.x.x.x.x.x.x.x.x.x.x.x.x.x.",
"x.x.x.x.x.x.x.x.x.x.x.x.x.x.x.x.x.x.x.x.x.x.x.x.x.x.x.S.W L Y x.x.x.x.x.x.x.x.x.x.x.x.x.x.x.x.x.x.x.x.x.x.x.x.x.x.x.x.x.x.x.x.x.",
"x.x.x.x.x.x.x.x.x.x.x.x.x.x.x.x.x.x.x.x.x.x.x.x.x.x.x.A.T I I x.x.x.x.x.x.x.x.x.x.x.x.x.x.x.x.x.x.x.x.x.x.x.x.x.x.x.x.x.x.x.x.x.",
"x.x.x.x.x.x.x.x.x.x.x.x.x.x.x.x.x.x.x.x.x.x.x.x.x.M.x.z.k.T w.x.x.x.x.x.x.x.x.x.x.x.x.x.x.x.x.x.x.x.x.x.x.x.x.x.x.x.x.x.x.x.x.x.",
"x.x.x.x.x.x.x.x.x.x.x.x.x.x.x.x.x.x.x.x.x.x.x.c.f.a N.x.x.t.x.x.x.x.x.x.x.x.x.x.x.x.x.x.x.x.x.x.x.x.x.x.x.x.x.x.x.x.x.x.x.x.x.x.",
"x.x.x.x.x.x.x.x.x.x.x.x.x.x.x.x.x.x.x.x.x.x.x.e.i r f c.x.x.x.x.x.x.x.x.x.x.x.x.x.x.x.x.x.x.x.x.x.x.x.x.x.x.x.x.x.x.x.x.x.x.x.x.",
"x.x.x.x.x.x.x.x.x.x.x.x.x.x.x.x.x.x.x.x.x.x.x.v 7 f 9 M.x.x.x.x.x.x.x.x.x.x.x.x.x.x.x.x.x.x.x.x.x.x.x.x.x.x.x.x.x.x.x.x.x.x.x.x.",
"x.x.x.x.x.x.x.x.x.x.x.x.x.x.x.x.x.x.x.x.x.x.x.b.d.7 C.x.x.x.x.x.x.x.x.x.x.x.x.x.x.x.x.x.x.x.x.x.x.x.x.x.x.x.x.x.x.x.x.x.x.x.x.x.",
"x.x.x.x.x.x.x.x.x.x.x.x.x.x.x.x.x.x.x.x.x.x.x.x.x.N.x.x.x.x.p.x.x.x.x.x.x.x.x.x.x.x.x.x.x.x.x.x.x.x.x.x.x.x.x.x.x.x.x.x.x.x.x.x.",
"x.x.x.x.x.x.x.x.x.x.x.x.x.x.x.x.x.x.x.x.x.x.x.x.x.x.x.x.x.z.C x.x.x.x.x.x.x.x.x.x.x.x.x.x.x.x.x.x.x.x.x.x.x.x.x.k.x.x.x.x.x.x.x.",
"x.x.x.x.x.x.x.x.k.x.x.x.x.x.x.x.x.x.x.x.x.x.x.x.x.x.k.x.n.V <.z.x.x.x.x.x.x.x.x.x.k.x.x.x.x.x.x.x.x.x.x.x.x.x.A.W.k.x.x.x.x.x.x.",
"x.x.x.x.x.x.x.k.R.A.x.x.x.x.x.x.x.x.x.x.x.x.x.x.x.m.R.p.H.*.X.z.x.x.x.x.x.x.x.x.k.T.S.x.x.x.x.x.x.x.x.x.x.x.p.C O.9.k.x.x.x.x.x.",
"x.x.x.x.x.x.z.9.} A p.x.x.x.x.x.x.x.x.x.x.x.x.x.k.E.>.G.m 1.%.z.x.x.x.x.x.x.x.z.9.{ H p.x.x.x.x.x.x.x.x.x.x.p.B { a.T.z.x.x.x.x.",
"x.x.x.x.x.z.P.a.] V p.x.x.x.x.x.x.x.x.x.x.x.x.x.z.I.|  ., ^ 9.x.x.x.x.x.x.x.z.Y.a.&.D p.x.x.x.x.x.x.x.x.x.x.k.M +.P.;.t.x.x.x.x.",
"x.x.x.x.x.w.X.U.' V p.x.x.x.x.x.x.x.x.x.x.x.x.x.x.l : ..) # c.x.x.x.x.x.x.x.w.o.R.%.D p.x.x.x.x.x.x.x.x.x.x.x.k.y.T._ y.x.x.x.x.",
"x.x.x.x.x.w.} U.+.C p.x.x.x.x.x.x.x.x.x.x.x.x.x.x.c.q.X * V.x.x.x.x.x.x.x.x.w.{ R.@.Z p.x.x.x.x.x.x.x.x.x.x.x.x.x.z.a.x.x.x.x.x.",
"x.x.x.x.x.y.] M a.z.x.x.x.x.x.x.x.x.x.x.x.x.x.x.x.x.x.M.b.x.x.x.x.x.x.x.x.x.w._ N y.z.x.x.x.x.x.x.x.x.x.x.x.x.x.x.x.x.x.x.x.x.f.",
"x.h.x.x.x.x.p.x.x.x.x.x.x.x.x.x.x.x.x.x.x.x.x.x.x.x.x.x.x.x.x.x.x.h.h.x.x.x.x.p.x.x.x.x.x.x.x.x.x.x.x.x.x.x.x.x.x.x.x.x.x.x.h.+ ",
"x.+ f.x.x.x.x.x.x.x.x.x.x.x.x.x.x.x.x.x.x.x.x.x.x.x.x.x.x.x.x.x.x.@ o f.x.x.x.x.x.x.x.x.x.x.x.x.x.x.x.x.x.x.x.x.x.x.x.x.x.x.x.x."
};
